<svg xmlns="http://www.w3.org/2000/svg" width="640" height="400">
<defs><linearGradient id="sky" x1="0" y1="0" x2="0" y2="1"><stop offset="0" stop-color="#1f2937"/><stop offset="1" stop-color="#94a3b8"/></linearGradient>
<radialGradient id="sun" cx="0.5" cy="0.4" r="0.6"><stop offset="0" stop-color="#3b82f6" stop-opacity="0.9"/><stop offset="1" stop-color="#3b82f6" stop-opacity="0"/></radialGradient></defs>
<rect width="640" height="400" fill="url(#sky)"/>
<ellipse cx="320" cy="120" rx="200" ry="80" fill="url(#sun)"/>
<text x="320" y="46" font-size="22" font-family="Helvetica,Arial,sans-serif" letter-spacing="2" fill="#f1f5f9" text-anchor="middle">Creator Launch — Vision Board</text>
<text x="320" y="70" font-size="13" font-family="Helvetica,Arial,sans-serif" font-style="italic" fill="#94a3b8" text-anchor="middle">publish the first 3 videos and the channel tra</text>
<line x1="0" y1="110" x2="640" y2="110" stroke="#f1f5f9" stroke-width="1" opacity="0.5"/>
<text x="608" y="104" font-size="10" font-family="Helvetica,Arial,sans-serif" fill="#f1f5f9" opacity="0.8" text-anchor="end">horizon = deadline</text>
<g><path d="M120 96 q22 -16 46 0 q-6 12 -23 12 q-17 0 -23 -12 Z" fill="#1f2937" opacity="0.75"/><text x="143" y="88" font-size="10.5" font-family="Helvetica,Arial,sans-serif" font-style="italic" fill="#94a3b8" text-anchor="middle">Tier: 2 </text></g><g><path d="M250 96 q22 -16 46 0 q-6 12 -23 12 q-17 0 -23 -12 Z" fill="#1f2937" opacity="0.75"/><text x="273" y="88" font-size="10.5" font-family="Helvetica,Arial,sans-serif" font-style="italic" fill="#94a3b8" text-anchor="middle">Tier: 3 </text></g>
<path d="M0 270 Q120 232 240 256 T480 250 T640 246 V400 H0 Z" fill="#1f2937"/>
<rect x="24" y="142" width="250" height="131" rx="8" fill="#000" opacity="0.25"/>
<text x="36" y="150" font-size="12" font-family="Helvetica,Arial,sans-serif" fill="#3b82f6" letter-spacing="2">BUILDING NOW (TIER 1)</text>
<text x="36" y="170" font-size="12.5" font-family="Helvetica,Arial,sans-serif" fill="#f1f5f9">◆ Channel trailer (60s)</text><text x="36" y="189" font-size="12.5" font-family="Helvetica,Arial,sans-serif" fill="#f1f5f9">◆ First 3 videos scripted, filmed, edited</text><text x="36" y="208" font-size="12.5" font-family="Helvetica,Arial,sans-serif" fill="#f1f5f9">◆ Channel art: banner, avatar, thumbnail templat</text><text x="36" y="227" font-size="12.5" font-family="Helvetica,Arial,sans-serif" fill="#f1f5f9">◆ Upload schedule: 1 video/week</text><text x="36" y="246" font-size="12.5" font-family="Helvetica,Arial,sans-serif" fill="#f1f5f9">◆ Basic end screen + subscribe nudge</text>
<g opacity="0.85"><ellipse cx="470" cy="120" rx="58" ry="20" fill="#000" opacity="0.35"/><text x="470" y="124" font-size="11" font-family="Helvetica,Arial,sans-serif" fill="#f1f5f9" text-anchor="middle" opacity="0.9">Thumbnail template - waiting on brand palette </text></g>
<path d="M60 386 Q200 350 320 330 T610 296" stroke="#f1f5f9" stroke-width="3" stroke-dasharray="7 6" fill="none" opacity="0.9"/>
<circle cx="295.71428571428567" cy="347.42857142857144" r="7" fill="#3b82f6"/>
<text x="36" y="376" font-size="11.5" font-family="Helvetica,Arial,sans-serif" fill="#f1f5f9">progress: 3 done · 4 open</text>
<text x="320" y="394" font-size="10" font-family="Helvetica,Arial,sans-serif" font-style="italic" fill="#94a3b8" text-anchor="middle">every element maps to project data — shadows = blockers · parked lane = parked ideas · path = TODO.md</text>
</svg>