<svg xmlns="http://www.w3.org/2000/svg" viewBox="0 0 720 520" role="img" aria-label="Northwind Brew logo mark">
  <defs>
    <linearGradient id="bg" x1="0" x2="1" y1="0" y2="1">
      <stop offset="0" stop-color="#fff4df"/>
      <stop offset="1" stop-color="#d9b878"/>
    </linearGradient>
    <linearGradient id="cup" x1="0" x2="1">
      <stop offset="0" stop-color="#6f3f25"/>
      <stop offset="1" stop-color="#2d1b13"/>
    </linearGradient>
    <filter id="shadow" x="-20%" y="-20%" width="140%" height="140%">
      <feDropShadow dx="0" dy="18" stdDeviation="14" flood-color="#2d1b13" flood-opacity=".22"/>
    </filter>
  </defs>
  <rect width="720" height="520" rx="46" fill="url(#bg)"/>
  <circle cx="360" cy="222" r="150" fill="#f8e5bf"/>
  <path d="M248 222c0-62 50-112 112-112s112 50 112 112v34c0 58-47 105-105 105h-14c-58 0-105-47-105-105z" fill="url(#cup)" filter="url(#shadow)"/>
  <path d="M472 220h42c40 0 70 30 70 70s-30 70-70 70h-52v-38h47c19 0 33-14 33-32s-14-32-33-32h-37z" fill="#6f3f25"/>
  <path d="M287 193c54-26 102-26 147 0" fill="none" stroke="#fff4df" stroke-width="15" stroke-linecap="round"/>
  <path d="M315 85c-25 27-28 54-8 81M360 69c-20 34-19 63 3 88M408 88c-21 28-21 53 2 78" fill="none" stroke="#6b8b65" stroke-width="12" stroke-linecap="round"/>
  <path d="M214 380h292" stroke="#2d1b13" stroke-width="18" stroke-linecap="round"/>
  <text x="360" y="438" text-anchor="middle" font-family="Georgia, serif" font-size="46" font-weight="700" fill="#2d1b13">Northwind Brew</text>
  <text x="360" y="474" text-anchor="middle" font-family="Inter, Segoe UI, Arial, sans-serif" font-size="18" letter-spacing="5" fill="#6f3f25">MORNING CLOSE TO HOME</text>
</svg>

